<mxfile host="app.diagrams.net" modified="2022-04-01T08:18:41.673Z" agent="5.0 (Windows NT 10.0; Win64; x64) AppleWebKit/537.36 (KHTML, like Gecko) Chrome/99.0.4844.51 Safari/537.36 Edg/99.0.1150.39" etag="ruWLxNw5yMAY21n52pXK" version="17.1.3" type="github">
  <diagram id="C5RBs43oDa-KdzZeNtuy" name="Page-1">
    <mxGraphModel dx="856" dy="545" grid="1" gridSize="10" guides="1" tooltips="1" connect="1" arrows="1" fold="1" page="1" pageScale="1" pageWidth="827" pageHeight="1169" math="0" shadow="0">
      <root>
        <mxCell id="WIyWlLk6GJQsqaUBKTNV-0" />
        <mxCell id="WIyWlLk6GJQsqaUBKTNV-1" parent="WIyWlLk6GJQsqaUBKTNV-0" />
        <mxCell id="MAKx53gDwEL0IVUVeETI-29" style="edgeStyle=orthogonalEdgeStyle;rounded=0;orthogonalLoop=1;jettySize=auto;html=1;exitX=0.5;exitY=1;exitDx=0;exitDy=0;entryX=0.5;entryY=0;entryDx=0;entryDy=0;" edge="1" parent="WIyWlLk6GJQsqaUBKTNV-1" source="MAKx53gDwEL0IVUVeETI-0" target="MAKx53gDwEL0IVUVeETI-2">
          <mxGeometry relative="1" as="geometry" />
        </mxCell>
        <mxCell id="MAKx53gDwEL0IVUVeETI-30" style="edgeStyle=orthogonalEdgeStyle;rounded=0;orthogonalLoop=1;jettySize=auto;html=1;exitX=0.5;exitY=1;exitDx=0;exitDy=0;" edge="1" parent="WIyWlLk6GJQsqaUBKTNV-1" source="MAKx53gDwEL0IVUVeETI-0" target="MAKx53gDwEL0IVUVeETI-17">
          <mxGeometry relative="1" as="geometry" />
        </mxCell>
        <mxCell id="MAKx53gDwEL0IVUVeETI-31" style="edgeStyle=orthogonalEdgeStyle;rounded=0;orthogonalLoop=1;jettySize=auto;html=1;exitX=0.5;exitY=1;exitDx=0;exitDy=0;entryX=0.5;entryY=0;entryDx=0;entryDy=0;" edge="1" parent="WIyWlLk6GJQsqaUBKTNV-1" source="MAKx53gDwEL0IVUVeETI-0" target="MAKx53gDwEL0IVUVeETI-22">
          <mxGeometry relative="1" as="geometry" />
        </mxCell>
        <mxCell id="MAKx53gDwEL0IVUVeETI-0" value="开始" style="ellipse;whiteSpace=wrap;html=1;" vertex="1" parent="WIyWlLk6GJQsqaUBKTNV-1">
          <mxGeometry x="207.5" y="50" width="78" height="43" as="geometry" />
        </mxCell>
        <mxCell id="MAKx53gDwEL0IVUVeETI-36" style="edgeStyle=orthogonalEdgeStyle;rounded=0;orthogonalLoop=1;jettySize=auto;html=1;exitX=0.5;exitY=1;exitDx=0;exitDy=0;entryX=0.5;entryY=0;entryDx=0;entryDy=0;" edge="1" parent="WIyWlLk6GJQsqaUBKTNV-1" source="MAKx53gDwEL0IVUVeETI-2" target="MAKx53gDwEL0IVUVeETI-26">
          <mxGeometry relative="1" as="geometry" />
        </mxCell>
        <mxCell id="MAKx53gDwEL0IVUVeETI-2" value="定义溯源数据模型" style="rounded=1;whiteSpace=wrap;html=1;fontSize=12;glass=0;strokeWidth=1;shadow=0;" vertex="1" parent="WIyWlLk6GJQsqaUBKTNV-1">
          <mxGeometry x="143" y="180" width="87" height="40" as="geometry" />
        </mxCell>
        <mxCell id="MAKx53gDwEL0IVUVeETI-3" value="" style="edgeStyle=orthogonalEdgeStyle;rounded=0;orthogonalLoop=1;jettySize=auto;html=1;exitX=1;exitY=0.5;exitDx=0;exitDy=0;" edge="1" parent="WIyWlLk6GJQsqaUBKTNV-1" target="MAKx53gDwEL0IVUVeETI-4">
          <mxGeometry relative="1" as="geometry">
            <mxPoint x="747" y="151.5" as="sourcePoint" />
          </mxGeometry>
        </mxCell>
        <mxCell id="MAKx53gDwEL0IVUVeETI-4" value="结束" style="ellipse;whiteSpace=wrap;html=1;" vertex="1" parent="WIyWlLk6GJQsqaUBKTNV-1">
          <mxGeometry x="800" y="130" width="78" height="43" as="geometry" />
        </mxCell>
        <mxCell id="MAKx53gDwEL0IVUVeETI-5" style="edgeStyle=orthogonalEdgeStyle;rounded=0;orthogonalLoop=1;jettySize=auto;html=1;exitX=0.5;exitY=1;exitDx=0;exitDy=0;" edge="1" parent="WIyWlLk6GJQsqaUBKTNV-1" source="MAKx53gDwEL0IVUVeETI-0" target="MAKx53gDwEL0IVUVeETI-23">
          <mxGeometry relative="1" as="geometry">
            <mxPoint x="300" y="161.4814814814814" as="sourcePoint" />
            <mxPoint x="400" y="201.4814814814814" as="targetPoint" />
          </mxGeometry>
        </mxCell>
        <mxCell id="MAKx53gDwEL0IVUVeETI-37" style="edgeStyle=orthogonalEdgeStyle;rounded=0;orthogonalLoop=1;jettySize=auto;html=1;exitX=0.5;exitY=1;exitDx=0;exitDy=0;entryX=0.5;entryY=0;entryDx=0;entryDy=0;" edge="1" parent="WIyWlLk6GJQsqaUBKTNV-1" source="MAKx53gDwEL0IVUVeETI-17" target="MAKx53gDwEL0IVUVeETI-26">
          <mxGeometry relative="1" as="geometry" />
        </mxCell>
        <mxCell id="MAKx53gDwEL0IVUVeETI-17" value="定义溯源数据解析" style="rounded=1;whiteSpace=wrap;html=1;fontSize=12;glass=0;strokeWidth=1;shadow=0;" vertex="1" parent="WIyWlLk6GJQsqaUBKTNV-1">
          <mxGeometry x="267" y="181.5" width="87" height="40" as="geometry" />
        </mxCell>
        <mxCell id="MAKx53gDwEL0IVUVeETI-38" style="edgeStyle=orthogonalEdgeStyle;rounded=0;orthogonalLoop=1;jettySize=auto;html=1;exitX=0.5;exitY=1;exitDx=0;exitDy=0;entryX=0.5;entryY=0;entryDx=0;entryDy=0;" edge="1" parent="WIyWlLk6GJQsqaUBKTNV-1" source="MAKx53gDwEL0IVUVeETI-22" target="MAKx53gDwEL0IVUVeETI-26">
          <mxGeometry relative="1" as="geometry" />
        </mxCell>
        <mxCell id="MAKx53gDwEL0IVUVeETI-22" value="定义溯源数据接入" style="rounded=1;whiteSpace=wrap;html=1;fontSize=12;glass=0;strokeWidth=1;shadow=0;" vertex="1" parent="WIyWlLk6GJQsqaUBKTNV-1">
          <mxGeometry x="400" y="180" width="87" height="40" as="geometry" />
        </mxCell>
        <mxCell id="MAKx53gDwEL0IVUVeETI-35" style="edgeStyle=orthogonalEdgeStyle;rounded=0;orthogonalLoop=1;jettySize=auto;html=1;exitX=0.5;exitY=1;exitDx=0;exitDy=0;entryX=0.5;entryY=0;entryDx=0;entryDy=0;" edge="1" parent="WIyWlLk6GJQsqaUBKTNV-1" source="MAKx53gDwEL0IVUVeETI-23" target="MAKx53gDwEL0IVUVeETI-26">
          <mxGeometry relative="1" as="geometry" />
        </mxCell>
        <mxCell id="MAKx53gDwEL0IVUVeETI-23" value="定义溯源数据本地存储" style="rounded=1;whiteSpace=wrap;html=1;fontSize=12;glass=0;strokeWidth=1;shadow=0;" vertex="1" parent="WIyWlLk6GJQsqaUBKTNV-1">
          <mxGeometry x="10" y="181.5" width="87" height="40" as="geometry" />
        </mxCell>
        <mxCell id="MAKx53gDwEL0IVUVeETI-39" style="edgeStyle=orthogonalEdgeStyle;rounded=0;orthogonalLoop=1;jettySize=auto;html=1;exitX=0.5;exitY=1;exitDx=0;exitDy=0;entryX=0.5;entryY=0;entryDx=0;entryDy=0;" edge="1" parent="WIyWlLk6GJQsqaUBKTNV-1" source="MAKx53gDwEL0IVUVeETI-26" target="MAKx53gDwEL0IVUVeETI-32">
          <mxGeometry relative="1" as="geometry" />
        </mxCell>
        <mxCell id="MAKx53gDwEL0IVUVeETI-26" value="数据接入" style="rounded=1;whiteSpace=wrap;html=1;fontSize=12;glass=0;strokeWidth=1;shadow=0;" vertex="1" parent="WIyWlLk6GJQsqaUBKTNV-1">
          <mxGeometry x="210" y="280" width="87" height="40" as="geometry" />
        </mxCell>
        <mxCell id="MAKx53gDwEL0IVUVeETI-40" style="edgeStyle=orthogonalEdgeStyle;rounded=0;orthogonalLoop=1;jettySize=auto;html=1;exitX=0.5;exitY=1;exitDx=0;exitDy=0;entryX=0.5;entryY=0;entryDx=0;entryDy=0;" edge="1" parent="WIyWlLk6GJQsqaUBKTNV-1" source="MAKx53gDwEL0IVUVeETI-32" target="MAKx53gDwEL0IVUVeETI-33">
          <mxGeometry relative="1" as="geometry" />
        </mxCell>
        <mxCell id="MAKx53gDwEL0IVUVeETI-32" value="数据解析" style="rounded=1;whiteSpace=wrap;html=1;fontSize=12;glass=0;strokeWidth=1;shadow=0;" vertex="1" parent="WIyWlLk6GJQsqaUBKTNV-1">
          <mxGeometry x="210" y="350" width="87" height="40" as="geometry" />
        </mxCell>
        <mxCell id="MAKx53gDwEL0IVUVeETI-41" style="edgeStyle=orthogonalEdgeStyle;rounded=0;orthogonalLoop=1;jettySize=auto;html=1;exitX=0.5;exitY=1;exitDx=0;exitDy=0;" edge="1" parent="WIyWlLk6GJQsqaUBKTNV-1" source="MAKx53gDwEL0IVUVeETI-33" target="MAKx53gDwEL0IVUVeETI-34">
          <mxGeometry relative="1" as="geometry" />
        </mxCell>
        <mxCell id="MAKx53gDwEL0IVUVeETI-33" value="数据存储" style="rounded=1;whiteSpace=wrap;html=1;fontSize=12;glass=0;strokeWidth=1;shadow=0;" vertex="1" parent="WIyWlLk6GJQsqaUBKTNV-1">
          <mxGeometry x="210" y="417" width="87" height="40" as="geometry" />
        </mxCell>
        <mxCell id="MAKx53gDwEL0IVUVeETI-34" value="结束" style="ellipse;whiteSpace=wrap;html=1;" vertex="1" parent="WIyWlLk6GJQsqaUBKTNV-1">
          <mxGeometry x="214.5" y="500" width="78" height="43" as="geometry" />
        </mxCell>
      </root>
    </mxGraphModel>
  </diagram>
</mxfile>
